<svg width="79" height="79" viewBox="0 0 79 79" fill="none" xmlns="http://www.w3.org/2000/svg">
<circle cx="39.5" cy="39.5" r="38.5" fill="white" stroke="#B05F30" stroke-width="2"/>
<path d="M32.625 53.4167C33.3384 53.4167 33.9167 52.8384 33.9167 52.125C33.9167 51.4117 33.3384 50.8334 32.625 50.8334C31.9116 50.8334 31.3333 51.4117 31.3333 52.125C31.3333 52.8384 31.9116 53.4167 32.625 53.4167Z" stroke="#B05F30" stroke-width="2" stroke-linecap="round" stroke-linejoin="round"/>
<path d="M46.8333 53.4167C47.5467 53.4167 48.125 52.8384 48.125 52.125C48.125 51.4117 47.5467 50.8334 46.8333 50.8334C46.12 50.8334 45.5417 51.4117 45.5417 52.125C45.5417 52.8384 46.12 53.4167 46.8333 53.4167Z" stroke="#B05F30" stroke-width="2" stroke-linecap="round" stroke-linejoin="round"/>
<path d="M22.2917 26.2916H27.4583L30.92 43.587C31.0381 44.1817 31.3616 44.7159 31.8339 45.0961C32.3062 45.4763 32.8972 45.6782 33.5033 45.6666H46.0583C46.6645 45.6782 47.2555 45.4763 47.7278 45.0961C48.2 44.7159 48.5236 44.1817 48.6417 43.587L50.7083 32.75H28.75" stroke="#B05F30" stroke-width="2" stroke-linecap="round" stroke-linejoin="round"/>
</svg>
