<svg width="79" height="79" viewBox="0 0 79 79" fill="none" xmlns="http://www.w3.org/2000/svg">
<circle cx="39.5" cy="39.5" r="38.5" fill="white" stroke="#B05F30" stroke-width="2"/>
<path d="M50.8333 33.0416H30.1666C28.7399 33.0416 27.5833 34.1982 27.5833 35.625V48.5416C27.5833 49.9684 28.7399 51.125 30.1666 51.125H50.8333C52.26 51.125 53.4166 49.9684 53.4166 48.5416V35.625C53.4166 34.1982 52.26 33.0416 50.8333 33.0416Z" stroke="#B05F30" stroke-width="2" stroke-linecap="round" stroke-linejoin="round"/>
<path d="M45.6666 51.125V30.4583C45.6666 29.7732 45.3945 29.1161 44.91 28.6316C44.4255 28.1472 43.7685 27.875 43.0833 27.875H37.9166C37.2315 27.875 36.5744 28.1472 36.09 28.6316C35.6055 29.1161 35.3333 29.7732 35.3333 30.4583V51.125" stroke="#B05F30" stroke-width="2" stroke-linecap="round" stroke-linejoin="round"/>
</svg>
