<svg width="327" height="470" viewBox="0 0 327 470" fill="none" xmlns="http://www.w3.org/2000/svg">
<path d="M319.973 -9.20001C319.973 -8.00002 319.873 -6.80001 319.873 -5.70001C317.473 33.5 289.773 63.8 252.773 68.3C251.973 68.4 251.073 68.5 250.273 68.6C247.273 68.9 244.273 69 241.473 68.9C199.673 68.2 166.073 35.6 165.173 -7.40002C164.273 -46.2 194.573 -80.5 233.473 -84.7C235.273 -84.9 237.073 -85.6 238.873 -86H246.273C250.773 -85.1 255.573 -84.3 260.173 -83.3C290.473 -76.6 314.373 -50.2 319.173 -20.6C319.673 -16.9 320.073 -13.1 319.973 -9.20001Z" fill="#18191F"/>
<path d="M471.373 298C447.473 257.7 421.773 218.6 392.973 181.6C390.773 178.7 388.473 175.8 386.173 172.9C363.873 145 340.173 118.4 311.573 96.6001C308.373 94.1001 304.973 91.9001 301.773 89.6001C275.973 114.8 240.473 120 210.673 105.7C202.773 102 195.273 96.8001 188.473 90.3001C185.873 91.8001 183.573 93.1001 181.273 94.5001C109.873 139.6 51.4727 198.3 1.07272 265.5C-0.227279 267.3 -0.327304 271.2 0.672696 273.2C6.2727 284.5 11.7727 295.8 18.3727 306.4C24.7727 316.7 31.4727 326.8 38.2727 336.6C49.1727 352.4 60.6727 367.7 72.6727 382.5C113.973 433.5 161.273 479 213.573 519.8C218.373 523.6 221.773 523.8 227.073 520.7C323.473 466.7 405.073 395.9 470.873 307.2C473.173 303.8 473.573 301.7 471.373 298ZM243.873 453.3C243.073 453.2 242.273 453.1 241.473 452.9C241.473 444 241.673 435 241.373 426.1C240.973 405.9 240.173 385.7 240.173 365.5C240.273 358.9 237.973 357.8 232.073 357.8C199.873 358 167.673 358 135.573 358H127.073C129.873 343.1 132.473 329.4 135.273 315.7C144.373 269.5 153.373 223.3 162.373 177.1C163.473 171.6 164.573 166.1 165.573 160.6C166.473 156.2 167.273 152 168.073 147.7C169.173 142 171.073 140.1 177.173 140.1C178.873 140.2 180.473 140.2 182.173 140.2C185.573 140.3 188.973 140.3 192.373 140.3C228.573 140.9 264.673 141.1 300.873 141.5C302.673 141.6 304.373 141.7 307.073 142C288.773 189.8 270.573 237 251.973 285.1C283.073 284.3 312.973 283.6 344.473 282.8C310.573 340.6 277.173 397 243.873 453.3Z" fill="#18191F"/>
</svg>
