<svg width="32" height="32" viewBox="0 0 32 32" fill="none" xmlns="http://www.w3.org/2000/svg">
<path opacity="0.1" fill-rule="evenodd" clip-rule="evenodd" d="M0 16C0 7.16344 7.16344 0 16 0C24.8366 0 32 7.16344 32 16C32 24.8366 24.8366 32 16 32C7.16344 32 0 24.8366 0 16Z" fill="#F4F5F7"/>
<path fill-rule="evenodd" clip-rule="evenodd" d="M23 22H9C8.449 22 8 21.552 8 21V11.25L15.4 16.8C15.578 16.934 15.789 17 16 17C16.211 17 16.422 16.934 16.6 16.8L24 11.25V21C24 21.552 23.551 22 23 22ZM22.333 10L16 14.75L9.66698 10H22.333ZM23 8H9C7.346 8 6 9.346 6 11V21C6 22.654 7.346 24 9 24H23C24.654 24 26 22.654 26 21V11C26 9.346 24.654 8 23 8Z" fill="#231F20"/>
<mask id="mask0" mask-type="alpha" maskUnits="userSpaceOnUse" x="6" y="8" width="20" height="16">
<path fill-rule="evenodd" clip-rule="evenodd" d="M23 22H9C8.449 22 8 21.552 8 21V11.25L15.4 16.8C15.578 16.934 15.789 17 16 17C16.211 17 16.422 16.934 16.6 16.8L24 11.25V21C24 21.552 23.551 22 23 22ZM22.333 10L16 14.75L9.66698 10H22.333ZM23 8H9C7.346 8 6 9.346 6 11V21C6 22.654 7.346 24 9 24H23C24.654 24 26 22.654 26 21V11C26 9.346 24.654 8 23 8Z" fill="white"/>
</mask>
<g mask="url(#mask0)">
<rect x="4" y="4" width="24" height="24" fill="#F4F5F7"/>
</g>
</svg>
