<svg width="131" height="50" viewBox="0 0 131 50" fill="none" xmlns="http://www.w3.org/2000/svg">
<g clip-path="url(#clip0)">
<path d="M28.2603 9.42648C28.2603 9.5038 28.2538 9.58112 28.2538 9.652C28.0992 12.1778 26.3144 14.1301 23.9304 14.42C23.8788 14.4265 23.8208 14.4329 23.7693 14.4394C23.576 14.4587 23.3827 14.4651 23.2023 14.4587C20.509 14.4136 18.344 12.3131 18.286 9.54246C18.2281 7.04246 20.1804 4.83241 22.6868 4.56179C22.8028 4.5489 22.9188 4.5038 23.0348 4.47803H23.5116C23.8015 4.53602 24.1108 4.58756 24.4072 4.652C26.3595 5.0837 27.8995 6.78473 28.2087 8.69195C28.241 8.93035 28.2667 9.17519 28.2603 9.42648Z" fill="#243F93"/>
<path d="M38.0155 29.2203C36.4755 26.6237 34.8196 24.1043 32.9639 21.7203C32.8222 21.5335 32.674 21.3466 32.5258 21.1598C31.0889 19.3621 29.5618 17.6482 27.7191 16.2435C27.5129 16.0824 27.2938 15.9407 27.0876 15.7925C25.4252 17.4162 23.1379 17.7512 21.2178 16.8299C20.7087 16.5915 20.2255 16.2564 19.7874 15.8376C19.6198 15.9342 19.4716 16.018 19.3234 16.1082C14.7229 19.0141 10.96 22.7963 7.71261 27.1262C7.62885 27.2422 7.6224 27.4935 7.68684 27.6224C8.04766 28.3505 8.40204 29.0786 8.8273 29.7616C9.23967 30.4252 9.67138 31.076 10.1095 31.7074C10.8118 32.7255 11.5528 33.7113 12.326 34.6649C14.9871 37.951 18.0348 40.8827 21.4046 43.5116C21.7139 43.7564 21.933 43.7693 22.2745 43.5695C28.4858 40.0902 33.7435 35.5283 37.9832 29.8131C38.1314 29.594 38.1572 29.4587 38.0155 29.2203ZM23.3569 39.2268C23.3054 39.2203 23.2539 39.2139 23.2023 39.201C23.2023 38.6275 23.2152 38.0476 23.1959 37.4742C23.1701 36.1726 23.1185 34.8711 23.1185 33.5695C23.125 33.1443 22.9768 33.0734 22.5966 33.0734C20.5219 33.0863 18.4472 33.0863 16.3789 33.0863H15.8312C16.0116 32.1262 16.1791 31.2435 16.3595 30.3608C16.9459 27.384 17.5258 24.4072 18.1057 21.4304C18.1765 21.076 18.2474 20.7216 18.3118 20.3672C18.3698 20.0837 18.4214 19.8131 18.4729 19.536C18.5438 19.1688 18.6662 19.0463 19.0593 19.0463C19.1688 19.0528 19.2719 19.0528 19.3814 19.0528C19.6005 19.0592 19.8196 19.0592 20.0386 19.0592C22.3711 19.0979 24.6972 19.1108 27.0296 19.1366C27.1456 19.143 27.2551 19.1494 27.4291 19.1688C26.25 22.2487 25.0773 25.2899 23.8789 28.3891C25.8827 28.3376 27.8093 28.2925 29.8389 28.2409C27.6546 31.9652 25.5026 35.5992 23.3569 39.2268Z" fill="#243F93"/>
<path d="M29.8454 28.2473C27.6546 31.9651 25.509 35.5991 23.357 39.2332C23.3054 39.2267 23.2539 39.2203 23.2023 39.2074C23.2023 38.6339 23.2152 38.054 23.1959 37.4806C23.1701 36.179 23.1185 34.8775 23.1185 33.5759C23.125 33.1507 22.9768 33.0798 22.5966 33.0798C20.5219 33.0927 18.4472 33.0927 16.3789 33.0927H15.8312C16.0116 32.1326 16.1791 31.2499 16.3595 30.3672C16.9459 27.3904 17.5258 24.4136 18.1057 21.4368C18.1765 21.0824 18.2474 20.728 18.3118 20.3736C18.3698 20.0901 18.4214 19.8195 18.4729 19.5424C18.5438 19.1752 18.6662 19.0527 19.0593 19.0527C19.1688 19.0592 19.2719 19.0592 19.3814 19.0592C19.6005 19.0656 19.8196 19.0656 20.0387 19.0656C22.3711 19.1043 24.6972 19.1172 27.0296 19.1429C27.1456 19.1494 27.2551 19.1558 27.4291 19.1752C26.25 22.2551 25.0773 25.2963 23.8789 28.3955C25.8892 28.344 27.8157 28.2924 29.8454 28.2473Z" fill="#F1E919"/>
<path d="M52.3969 19.7422C52.3969 19.0399 52.9639 18.4922 53.7307 18.4922C54.4974 18.4922 55.0644 19.0076 55.0644 19.6906C55.0644 20.4252 54.5168 20.9922 53.7307 20.9922C52.9639 20.9857 52.3969 20.4381 52.3969 19.7422ZM52.6804 22.4548H54.7616V31.353H52.6804V22.4548Z" fill="white"/>
<path d="M68.067 19.6904V31.3528H66.2822L59.8518 23.4533V31.3528H57.6997V19.6904H59.4845L65.9149 27.5899V19.6904H68.067Z" fill="white"/>
<path d="M70.2126 30.1222L70.9601 28.4405C71.8943 29.1879 73.3763 29.7227 74.8067 29.7227C76.6237 29.7227 77.3905 29.0719 77.3905 28.2085C77.3905 25.6892 70.4575 27.3387 70.4575 23.0088C70.4575 21.1273 71.9588 19.5229 75.1547 19.5229C76.5529 19.5229 78.0219 19.8902 79.04 20.5539L78.357 22.2356C77.3067 21.617 76.1598 21.3206 75.1418 21.3206C73.3441 21.3206 72.6096 22.023 72.6096 22.9057C72.6096 25.3864 79.5232 23.7755 79.5232 28.0539C79.5232 29.9224 78.009 31.5204 74.8067 31.5204C72.9962 31.5204 71.1791 30.9534 70.2126 30.1222Z" fill="white"/>
<path d="M91.4498 23.8399C91.4498 26.4043 89.549 27.9894 86.482 27.9894H83.8467V31.3528H81.6817V19.6904H86.482C89.549 19.6904 91.4498 21.2562 91.4498 23.8399ZM89.2655 23.8399C89.2655 22.3708 88.2797 21.5203 86.3853 21.5203H83.8467V26.1531H86.3789C88.2797 26.1531 89.2655 25.3025 89.2655 23.8399Z" fill="white"/>
<path d="M100.599 28.6532H94.768L93.6211 31.3529H91.3853L96.6366 19.6841H98.7693L104.033 31.3529H101.765L100.599 28.6532ZM99.8775 26.9521L97.6804 21.8555L95.4961 26.9521H99.8775Z" fill="white"/>
<path d="M113.144 31.3528L110.76 27.9379C110.612 27.9572 110.457 27.9572 110.309 27.9572H107.674V31.3592H105.509V19.6904H110.309C113.376 19.6904 115.277 21.2562 115.277 23.8399C115.277 25.6054 114.375 26.9069 112.796 27.5255L115.477 31.3592H113.144V31.3528ZM110.213 21.5203H107.68V26.1724H110.213C112.113 26.1724 113.093 25.3025 113.093 23.8399C113.099 22.3708 112.113 21.5203 110.213 21.5203Z" fill="white"/>
<path d="M121.714 26.4688L119.865 28.3696V31.3528H117.7V19.6904H119.865V25.6763L125.631 19.6904H128.067L123.17 24.9095L128.37 31.3592H125.838L121.714 26.4688Z" fill="white"/>
</g>
<defs>
<clipPath id="clip0">
<rect width="130.67" height="50" fill="white"/>
</clipPath>
</defs>
</svg>
