<svg width="26" height="32" viewBox="0 0 26 32" fill="none" xmlns="http://www.w3.org/2000/svg">
<g id="Icon/Outline/chevron-right">
<path id="Mask" fill-rule="evenodd" clip-rule="evenodd" d="M11.2749 22.6667C11 22.6667 10.7252 22.536 10.5158 22.276C10.0959 21.7547 10.0959 20.912 10.5158 20.3907L14.0647 15.984L10.65 11.5933C10.2387 11.0627 10.2505 10.2187 10.6768 9.70799C11.1042 9.19732 11.7839 9.21199 12.1952 9.73999L16.3422 15.0733C16.7492 15.5973 16.7438 16.428 16.3293 16.9427L12.0341 22.276C11.8247 22.536 11.5498 22.6667 11.2749 22.6667Z" fill="#234095"/>
<mask id="mask0" mask-type="alpha" maskUnits="userSpaceOnUse" x="10" y="9" width="7" height="14">
<path id="Mask_2" fill-rule="evenodd" clip-rule="evenodd" d="M11.2749 22.6667C11 22.6667 10.7252 22.536 10.5158 22.276C10.0959 21.7547 10.0959 20.912 10.5158 20.3907L14.0647 15.984L10.65 11.5933C10.2387 11.0627 10.2505 10.2187 10.6768 9.70799C11.1042 9.19732 11.7839 9.21199 12.1952 9.73999L16.3422 15.0733C16.7492 15.5973 16.7438 16.428 16.3293 16.9427L12.0341 22.276C11.8247 22.536 11.5498 22.6667 11.2749 22.6667Z" fill="white"/>
</mask>
<g mask="url(#mask0)">
<g id="&#240;&#159;&#142;&#168; Color">
<rect id="Base" width="25.7713" height="32" fill="#234095"/>
</g>
</g>
</g>
</svg>
